<mxfile host="65bd71144e">
    <diagram id="vVA_o35hJ7-RhdYQv6_G" name="逻辑架构v1.0">
        <mxGraphModel dx="2849" dy="798" grid="1" gridSize="10" guides="1" tooltips="1" connect="1" arrows="1" fold="1" page="1" pageScale="1" pageWidth="827" pageHeight="1169" math="0" shadow="0">
            <root>
                <mxCell id="0"/>
                <mxCell id="1" parent="0"/>
                <mxCell id="oEgxVoZ06rKnOK16Z4o3-8" value="" style="rounded=0;whiteSpace=wrap;html=1;fillColor=#dae8fc;strokeColor=#6c8ebf;fontSize=15;" parent="1" vertex="1">
                    <mxGeometry x="-1320" y="460" width="830" height="370" as="geometry"/>
                </mxCell>
                <mxCell id="oEgxVoZ06rKnOK16Z4o3-9" value="业务服务层" style="text;html=1;strokeColor=none;fillColor=none;align=center;verticalAlign=middle;whiteSpace=wrap;rounded=0;fontSize=15;" parent="1" vertex="1">
                    <mxGeometry x="-1300" y="470" width="100" height="20" as="geometry"/>
                </mxCell>
                <mxCell id="1Gb1egaOadGZ2a_2MbuA-2" value="工作空间服务" style="html=1;fontSize=15;" parent="1" vertex="1">
                    <mxGeometry x="-1070" y="520" width="110" height="50" as="geometry"/>
                </mxCell>
                <mxCell id="1Gb1egaOadGZ2a_2MbuA-5" value="数据空间服务" style="html=1;fontSize=15;" parent="1" vertex="1">
                    <mxGeometry x="-830" y="520" width="110" height="50" as="geometry"/>
                </mxCell>
                <mxCell id="1Gb1egaOadGZ2a_2MbuA-13" value="工作空间执行器" style="html=1;fontSize=15;" parent="1" vertex="1">
                    <mxGeometry x="-1070" y="750" width="110" height="50" as="geometry"/>
                </mxCell>
                <mxCell id="1Gb1egaOadGZ2a_2MbuA-20" value="数据空间执行器" style="html=1;fontSize=15;" parent="1" vertex="1">
                    <mxGeometry x="-830" y="750" width="110" height="50" as="geometry"/>
                </mxCell>
                <mxCell id="oEgxVoZ06rKnOK16Z4o3-6" style="edgeStyle=none;html=1;endArrow=none;endFill=0;fontSize=15;" parent="1" source="1Gb1egaOadGZ2a_2MbuA-24" target="1Gb1egaOadGZ2a_2MbuA-13" edge="1">
                    <mxGeometry relative="1" as="geometry"/>
                </mxCell>
                <mxCell id="1Gb1egaOadGZ2a_2MbuA-24" value="工作空间数据" style="ellipse;shape=umlEntity;whiteSpace=wrap;html=1;fontSize=15;" parent="1" vertex="1">
                    <mxGeometry x="-1055" y="615" width="80" height="80" as="geometry"/>
                </mxCell>
                <mxCell id="1Gb1egaOadGZ2a_2MbuA-1" style="edgeStyle=none;html=1;endArrow=none;endFill=0;fontSize=15;" parent="1" source="1Gb1egaOadGZ2a_2MbuA-2" target="1Gb1egaOadGZ2a_2MbuA-24" edge="1">
                    <mxGeometry relative="1" as="geometry"/>
                </mxCell>
                <mxCell id="1Gb1egaOadGZ2a_2MbuA-25" value="文件存储" style="ellipse;shape=umlEntity;whiteSpace=wrap;html=1;fontSize=15;" parent="1" vertex="1">
                    <mxGeometry x="-669" y="615" width="80" height="80" as="geometry"/>
                </mxCell>
                <mxCell id="1Gb1egaOadGZ2a_2MbuA-3" style="edgeStyle=none;html=1;endArrow=none;endFill=0;fontSize=15;" parent="1" source="1Gb1egaOadGZ2a_2MbuA-5" target="1Gb1egaOadGZ2a_2MbuA-25" edge="1">
                    <mxGeometry relative="1" as="geometry"/>
                </mxCell>
                <mxCell id="1Gb1egaOadGZ2a_2MbuA-18" style="edgeStyle=none;html=1;endArrow=none;endFill=0;fontSize=15;" parent="1" source="1Gb1egaOadGZ2a_2MbuA-20" target="1Gb1egaOadGZ2a_2MbuA-25" edge="1">
                    <mxGeometry relative="1" as="geometry"/>
                </mxCell>
                <mxCell id="1Gb1egaOadGZ2a_2MbuA-28" value="数据空间数据" style="ellipse;shape=umlEntity;whiteSpace=wrap;html=1;fontSize=15;" parent="1" vertex="1">
                    <mxGeometry x="-815" y="615" width="80" height="80" as="geometry"/>
                </mxCell>
                <mxCell id="1Gb1egaOadGZ2a_2MbuA-4" style="edgeStyle=none;html=1;endArrow=none;endFill=0;fontSize=15;" parent="1" source="1Gb1egaOadGZ2a_2MbuA-5" target="1Gb1egaOadGZ2a_2MbuA-28" edge="1">
                    <mxGeometry relative="1" as="geometry"/>
                </mxCell>
                <mxCell id="1Gb1egaOadGZ2a_2MbuA-17" style="edgeStyle=none;html=1;endArrow=none;endFill=0;fontSize=15;" parent="1" source="1Gb1egaOadGZ2a_2MbuA-20" target="1Gb1egaOadGZ2a_2MbuA-28" edge="1">
                    <mxGeometry relative="1" as="geometry"/>
                </mxCell>
                <mxCell id="zxybhiNNPWDu_kbE6-t5-33" style="edgeStyle=none;html=1;strokeWidth=1;fontSize=15;endArrow=none;endFill=0;endSize=6;" parent="1" source="zxybhiNNPWDu_kbE6-t5-13" target="zxybhiNNPWDu_kbE6-t5-24" edge="1">
                    <mxGeometry relative="1" as="geometry"/>
                </mxCell>
                <mxCell id="zxybhiNNPWDu_kbE6-t5-13" value="开发者" style="shape=umlActor;verticalLabelPosition=bottom;verticalAlign=top;html=1;fontSize=15;" parent="1" vertex="1">
                    <mxGeometry x="-920" y="130" width="30" height="60" as="geometry"/>
                </mxCell>
                <mxCell id="ViZqe3pEsHuasah4cH0R-2" style="edgeStyle=none;html=1;strokeWidth=2;endArrow=none;endFill=0;" edge="1" parent="1" source="zxybhiNNPWDu_kbE6-t5-24" target="oEgxVoZ06rKnOK16Z4o3-8">
                    <mxGeometry relative="1" as="geometry"/>
                </mxCell>
                <mxCell id="zxybhiNNPWDu_kbE6-t5-24" value="" style="rounded=0;whiteSpace=wrap;html=1;fontSize=13;fillColor=#f5f5f5;strokeColor=#666666;fontColor=#333333;" parent="1" vertex="1">
                    <mxGeometry x="-1320" y="300" width="830" height="130" as="geometry"/>
                </mxCell>
                <mxCell id="zxybhiNNPWDu_kbE6-t5-16" value="工作空间应用前端" style="html=1;fontSize=13;" parent="1" vertex="1">
                    <mxGeometry x="-1185" y="359" width="110" height="50" as="geometry"/>
                </mxCell>
                <mxCell id="zxybhiNNPWDu_kbE6-t5-17" value="工作空间应用接口" style="html=1;fontSize=13;" parent="1" vertex="1">
                    <mxGeometry x="-750" y="359" width="110" height="50" as="geometry"/>
                </mxCell>
                <mxCell id="zxybhiNNPWDu_kbE6-t5-19" value="用户及组织应用接口" style="html=1;fontSize=13;" parent="1" vertex="1">
                    <mxGeometry x="-630" y="359" width="120" height="51" as="geometry"/>
                </mxCell>
                <mxCell id="zxybhiNNPWDu_kbE6-t5-21" value="用户及组织应用前端" style="html=1;fontSize=13;" parent="1" vertex="1">
                    <mxGeometry x="-1060" y="359" width="130" height="51" as="geometry"/>
                </mxCell>
                <mxCell id="zxybhiNNPWDu_kbE6-t5-28" value="交互层" style="text;html=1;strokeColor=none;fillColor=none;align=center;verticalAlign=middle;whiteSpace=wrap;rounded=0;fontSize=15;" parent="1" vertex="1">
                    <mxGeometry x="-1280" y="300" width="60" height="30" as="geometry"/>
                </mxCell>
                <mxCell id="ZPXXVX6sJdJjNKYwcHni-1" style="edgeStyle=none;html=1;endArrow=none;endFill=0;" parent="1" source="ZPXXVX6sJdJjNKYwcHni-2" target="ZPXXVX6sJdJjNKYwcHni-3" edge="1">
                    <mxGeometry relative="1" as="geometry"/>
                </mxCell>
                <mxCell id="ZPXXVX6sJdJjNKYwcHni-2" value="用户及组织服务" style="html=1;fontSize=15;" parent="1" vertex="1">
                    <mxGeometry x="-1280" y="520" width="110" height="50" as="geometry"/>
                </mxCell>
                <mxCell id="ZPXXVX6sJdJjNKYwcHni-3" value="用户组织数据" style="ellipse;shape=umlEntity;whiteSpace=wrap;html=1;fontSize=15;" parent="1" vertex="1">
                    <mxGeometry x="-1265" y="615" width="80" height="80" as="geometry"/>
                </mxCell>
                <mxCell id="ViZqe3pEsHuasah4cH0R-1" value="" style="group" vertex="1" connectable="0" parent="1">
                    <mxGeometry x="-1320" y="870" width="830" height="370" as="geometry"/>
                </mxCell>
                <mxCell id="oEgxVoZ06rKnOK16Z4o3-11" value="" style="rounded=0;whiteSpace=wrap;html=1;container=0;fillColor=#fff2cc;strokeColor=#d6b656;fontSize=15;" parent="ViZqe3pEsHuasah4cH0R-1" vertex="1">
                    <mxGeometry width="830" height="370" as="geometry"/>
                </mxCell>
                <mxCell id="1Gb1egaOadGZ2a_2MbuA-7" value="容器镜像服务" style="html=1;container=0;fontSize=15;" parent="ViZqe3pEsHuasah4cH0R-1" vertex="1">
                    <mxGeometry x="550" y="160" width="110" height="50" as="geometry"/>
                </mxCell>
                <mxCell id="1Gb1egaOadGZ2a_2MbuA-23" value="容器执行器" style="html=1;container=0;fontSize=15;" parent="ViZqe3pEsHuasah4cH0R-1" vertex="1">
                    <mxGeometry x="400" y="160" width="110" height="50" as="geometry"/>
                </mxCell>
                <mxCell id="1Gb1egaOadGZ2a_2MbuA-27" value="容器镜像数据" style="ellipse;shape=umlEntity;whiteSpace=wrap;html=1;container=0;fontSize=15;" parent="ViZqe3pEsHuasah4cH0R-1" vertex="1">
                    <mxGeometry x="506" y="255" width="80" height="80" as="geometry"/>
                </mxCell>
                <mxCell id="oEgxVoZ06rKnOK16Z4o3-3" style="edgeStyle=none;html=1;endArrow=none;endFill=0;fontSize=15;" parent="ViZqe3pEsHuasah4cH0R-1" source="1Gb1egaOadGZ2a_2MbuA-7" target="1Gb1egaOadGZ2a_2MbuA-27" edge="1">
                    <mxGeometry relative="1" as="geometry"/>
                </mxCell>
                <mxCell id="1Gb1egaOadGZ2a_2MbuA-21" style="edgeStyle=none;html=1;endArrow=none;endFill=0;fontSize=15;" parent="ViZqe3pEsHuasah4cH0R-1" source="1Gb1egaOadGZ2a_2MbuA-23" target="1Gb1egaOadGZ2a_2MbuA-27" edge="1">
                    <mxGeometry relative="1" as="geometry"/>
                </mxCell>
                <mxCell id="1Gb1egaOadGZ2a_2MbuA-29" value="异步任务数据" style="ellipse;shape=umlEntity;whiteSpace=wrap;html=1;container=0;fontSize=15;" parent="ViZqe3pEsHuasah4cH0R-1" vertex="1">
                    <mxGeometry x="415" y="45" width="80" height="80" as="geometry"/>
                </mxCell>
                <mxCell id="oEgxVoZ06rKnOK16Z4o3-5" style="edgeStyle=none;html=1;endArrow=none;endFill=0;fontSize=15;" parent="ViZqe3pEsHuasah4cH0R-1" source="1Gb1egaOadGZ2a_2MbuA-23" target="1Gb1egaOadGZ2a_2MbuA-29" edge="1">
                    <mxGeometry relative="1" as="geometry"/>
                </mxCell>
                <mxCell id="oEgxVoZ06rKnOK16Z4o3-1" value="镜像文件" style="ellipse;shape=umlEntity;whiteSpace=wrap;html=1;container=0;fontSize=15;" parent="ViZqe3pEsHuasah4cH0R-1" vertex="1">
                    <mxGeometry x="630" y="255" width="80" height="80" as="geometry"/>
                </mxCell>
                <mxCell id="oEgxVoZ06rKnOK16Z4o3-4" style="edgeStyle=none;html=1;endArrow=none;endFill=0;fontSize=15;" parent="ViZqe3pEsHuasah4cH0R-1" source="1Gb1egaOadGZ2a_2MbuA-7" target="oEgxVoZ06rKnOK16Z4o3-1" edge="1">
                    <mxGeometry relative="1" as="geometry"/>
                </mxCell>
                <mxCell id="oEgxVoZ06rKnOK16Z4o3-16" value="容器服务层" style="text;html=1;align=center;verticalAlign=middle;resizable=0;points=[];autosize=1;strokeColor=none;fillColor=none;fontSize=15;" parent="ViZqe3pEsHuasah4cH0R-1" vertex="1">
                    <mxGeometry width="100" height="30" as="geometry"/>
                </mxCell>
                <mxCell id="zxybhiNNPWDu_kbE6-t5-53" value="容器环境API" style="html=1;container=0;fontSize=15;" parent="ViZqe3pEsHuasah4cH0R-1" vertex="1">
                    <mxGeometry x="180" y="220" width="110" height="120" as="geometry"/>
                </mxCell>
                <mxCell id="zxybhiNNPWDu_kbE6-t5-54" style="edgeStyle=none;html=1;strokeWidth=1;fontSize=15;endArrow=none;endFill=0;endSize=6;" parent="ViZqe3pEsHuasah4cH0R-1" source="1Gb1egaOadGZ2a_2MbuA-23" target="zxybhiNNPWDu_kbE6-t5-53" edge="1">
                    <mxGeometry relative="1" as="geometry"/>
                </mxCell>
                <mxCell id="oEgxVoZ06rKnOK16Z4o3-18" style="edgeStyle=none;html=1;endArrow=none;endFill=0;exitX=0.721;exitY=0.999;exitDx=0;exitDy=0;exitPerimeter=0;fontSize=15;strokeWidth=2;" parent="1" source="oEgxVoZ06rKnOK16Z4o3-8" target="1Gb1egaOadGZ2a_2MbuA-7" edge="1">
                    <mxGeometry relative="1" as="geometry">
                        <mxPoint x="-720" y="820" as="sourcePoint"/>
                    </mxGeometry>
                </mxCell>
                <mxCell id="1Gb1egaOadGZ2a_2MbuA-12" style="edgeStyle=none;html=1;endArrow=none;endFill=0;fontSize=15;" parent="1" source="1Gb1egaOadGZ2a_2MbuA-13" target="1Gb1egaOadGZ2a_2MbuA-29" edge="1">
                    <mxGeometry relative="1" as="geometry"/>
                </mxCell>
                <mxCell id="1Gb1egaOadGZ2a_2MbuA-19" style="edgeStyle=none;html=1;endArrow=none;endFill=0;fontSize=15;" parent="1" source="1Gb1egaOadGZ2a_2MbuA-20" target="1Gb1egaOadGZ2a_2MbuA-29" edge="1">
                    <mxGeometry relative="1" as="geometry"/>
                </mxCell>
                <mxCell id="3WPW9wRoEwNam94XegMr-1" value="注册登录前端" style="html=1;fontSize=13;" vertex="1" parent="1">
                    <mxGeometry x="-1305" y="359" width="110" height="50" as="geometry"/>
                </mxCell>
                <mxCell id="3WPW9wRoEwNam94XegMr-2" value="注册登录接口" style="html=1;fontSize=13;" vertex="1" parent="1">
                    <mxGeometry x="-880" y="359" width="110" height="50" as="geometry"/>
                </mxCell>
            </root>
        </mxGraphModel>
    </diagram>
    <diagram name="逻辑架构_bak" id="6lDBT43pb7SiyB7maAuz">
        <mxGraphModel dx="3347" dy="1130" grid="1" gridSize="10" guides="1" tooltips="1" connect="1" arrows="1" fold="1" page="1" pageScale="1" pageWidth="827" pageHeight="1169" math="0" shadow="0">
            <root>
                <mxCell id="QnzlQ-9_vZ0xbuwPprId-0"/>
                <mxCell id="QnzlQ-9_vZ0xbuwPprId-1" parent="QnzlQ-9_vZ0xbuwPprId-0"/>
                <mxCell id="QnzlQ-9_vZ0xbuwPprId-2" value="" style="rounded=0;whiteSpace=wrap;html=1;fillColor=#dae8fc;strokeColor=#6c8ebf;fontSize=15;" vertex="1" parent="QnzlQ-9_vZ0xbuwPprId-1">
                    <mxGeometry x="-1420" y="1200" width="830" height="370" as="geometry"/>
                </mxCell>
                <mxCell id="QnzlQ-9_vZ0xbuwPprId-3" value="业务服务层" style="text;html=1;strokeColor=none;fillColor=none;align=center;verticalAlign=middle;whiteSpace=wrap;rounded=0;fontSize=15;" vertex="1" parent="QnzlQ-9_vZ0xbuwPprId-1">
                    <mxGeometry x="-1400" y="1210" width="100" height="20" as="geometry"/>
                </mxCell>
                <mxCell id="QnzlQ-9_vZ0xbuwPprId-4" value="工作空间服务" style="html=1;fontSize=15;" vertex="1" parent="QnzlQ-9_vZ0xbuwPprId-1">
                    <mxGeometry x="-1210" y="1260" width="110" height="50" as="geometry"/>
                </mxCell>
                <mxCell id="QnzlQ-9_vZ0xbuwPprId-5" value="数据空间服务" style="html=1;fontSize=15;" vertex="1" parent="QnzlQ-9_vZ0xbuwPprId-1">
                    <mxGeometry x="-1045" y="1260" width="110" height="50" as="geometry"/>
                </mxCell>
                <mxCell id="QnzlQ-9_vZ0xbuwPprId-6" value="云服务" style="html=1;fontSize=15;" vertex="1" parent="QnzlQ-9_vZ0xbuwPprId-1">
                    <mxGeometry x="-800" y="1260" width="110" height="50" as="geometry"/>
                </mxCell>
                <mxCell id="QnzlQ-9_vZ0xbuwPprId-7" value="工作空间执行器" style="html=1;fontSize=15;" vertex="1" parent="QnzlQ-9_vZ0xbuwPprId-1">
                    <mxGeometry x="-1210" y="1490" width="110" height="50" as="geometry"/>
                </mxCell>
                <mxCell id="QnzlQ-9_vZ0xbuwPprId-8" value="云服务执行器" style="html=1;fontSize=15;" vertex="1" parent="QnzlQ-9_vZ0xbuwPprId-1">
                    <mxGeometry x="-799" y="1490" width="110" height="50" as="geometry"/>
                </mxCell>
                <mxCell id="QnzlQ-9_vZ0xbuwPprId-9" value="数据空间执行器" style="html=1;fontSize=15;" vertex="1" parent="QnzlQ-9_vZ0xbuwPprId-1">
                    <mxGeometry x="-1045" y="1490" width="110" height="50" as="geometry"/>
                </mxCell>
                <mxCell id="QnzlQ-9_vZ0xbuwPprId-10" style="edgeStyle=none;html=1;endArrow=none;endFill=0;fontSize=15;" edge="1" parent="QnzlQ-9_vZ0xbuwPprId-1" source="QnzlQ-9_vZ0xbuwPprId-11" target="QnzlQ-9_vZ0xbuwPprId-7">
                    <mxGeometry relative="1" as="geometry"/>
                </mxCell>
                <mxCell id="QnzlQ-9_vZ0xbuwPprId-11" value="工作空间数据" style="ellipse;shape=umlEntity;whiteSpace=wrap;html=1;fontSize=15;" vertex="1" parent="QnzlQ-9_vZ0xbuwPprId-1">
                    <mxGeometry x="-1195" y="1355" width="80" height="80" as="geometry"/>
                </mxCell>
                <mxCell id="QnzlQ-9_vZ0xbuwPprId-12" style="edgeStyle=none;html=1;endArrow=none;endFill=0;fontSize=15;" edge="1" parent="QnzlQ-9_vZ0xbuwPprId-1" source="QnzlQ-9_vZ0xbuwPprId-4" target="QnzlQ-9_vZ0xbuwPprId-11">
                    <mxGeometry relative="1" as="geometry"/>
                </mxCell>
                <mxCell id="QnzlQ-9_vZ0xbuwPprId-13" value="文件存储" style="ellipse;shape=umlEntity;whiteSpace=wrap;html=1;fontSize=15;" vertex="1" parent="QnzlQ-9_vZ0xbuwPprId-1">
                    <mxGeometry x="-884" y="1355" width="80" height="80" as="geometry"/>
                </mxCell>
                <mxCell id="QnzlQ-9_vZ0xbuwPprId-14" style="edgeStyle=none;html=1;endArrow=none;endFill=0;fontSize=15;" edge="1" parent="QnzlQ-9_vZ0xbuwPprId-1" source="QnzlQ-9_vZ0xbuwPprId-5" target="QnzlQ-9_vZ0xbuwPprId-13">
                    <mxGeometry relative="1" as="geometry"/>
                </mxCell>
                <mxCell id="QnzlQ-9_vZ0xbuwPprId-15" style="edgeStyle=none;html=1;endArrow=none;endFill=0;fontSize=15;" edge="1" parent="QnzlQ-9_vZ0xbuwPprId-1" source="QnzlQ-9_vZ0xbuwPprId-9" target="QnzlQ-9_vZ0xbuwPprId-13">
                    <mxGeometry relative="1" as="geometry"/>
                </mxCell>
                <mxCell id="QnzlQ-9_vZ0xbuwPprId-16" value="云服务数据" style="ellipse;shape=umlEntity;whiteSpace=wrap;html=1;fontSize=15;" vertex="1" parent="QnzlQ-9_vZ0xbuwPprId-1">
                    <mxGeometry x="-785" y="1355" width="80" height="80" as="geometry"/>
                </mxCell>
                <mxCell id="QnzlQ-9_vZ0xbuwPprId-17" style="edgeStyle=none;html=1;endArrow=none;endFill=0;fontSize=15;" edge="1" parent="QnzlQ-9_vZ0xbuwPprId-1" source="QnzlQ-9_vZ0xbuwPprId-6" target="QnzlQ-9_vZ0xbuwPprId-16">
                    <mxGeometry relative="1" as="geometry"/>
                </mxCell>
                <mxCell id="QnzlQ-9_vZ0xbuwPprId-18" style="edgeStyle=none;html=1;entryX=0.5;entryY=1;entryDx=0;entryDy=0;endArrow=none;endFill=0;fontSize=15;" edge="1" parent="QnzlQ-9_vZ0xbuwPprId-1" source="QnzlQ-9_vZ0xbuwPprId-8" target="QnzlQ-9_vZ0xbuwPprId-16">
                    <mxGeometry relative="1" as="geometry"/>
                </mxCell>
                <mxCell id="QnzlQ-9_vZ0xbuwPprId-19" value="数据空间数据" style="ellipse;shape=umlEntity;whiteSpace=wrap;html=1;fontSize=15;" vertex="1" parent="QnzlQ-9_vZ0xbuwPprId-1">
                    <mxGeometry x="-1030" y="1355" width="80" height="80" as="geometry"/>
                </mxCell>
                <mxCell id="QnzlQ-9_vZ0xbuwPprId-20" style="edgeStyle=none;html=1;endArrow=none;endFill=0;fontSize=15;" edge="1" parent="QnzlQ-9_vZ0xbuwPprId-1" source="QnzlQ-9_vZ0xbuwPprId-5" target="QnzlQ-9_vZ0xbuwPprId-19">
                    <mxGeometry relative="1" as="geometry"/>
                </mxCell>
                <mxCell id="QnzlQ-9_vZ0xbuwPprId-21" style="edgeStyle=none;html=1;endArrow=none;endFill=0;fontSize=15;" edge="1" parent="QnzlQ-9_vZ0xbuwPprId-1" source="QnzlQ-9_vZ0xbuwPprId-9" target="QnzlQ-9_vZ0xbuwPprId-19">
                    <mxGeometry relative="1" as="geometry"/>
                </mxCell>
                <mxCell id="QnzlQ-9_vZ0xbuwPprId-22" style="edgeStyle=none;html=1;strokeWidth=1;fontSize=15;endArrow=none;endFill=0;endSize=6;" edge="1" parent="QnzlQ-9_vZ0xbuwPprId-1" source="QnzlQ-9_vZ0xbuwPprId-24" target="QnzlQ-9_vZ0xbuwPprId-29">
                    <mxGeometry relative="1" as="geometry"/>
                </mxCell>
                <mxCell id="QnzlQ-9_vZ0xbuwPprId-23" style="edgeStyle=none;html=1;strokeWidth=1;fontSize=15;endArrow=none;endFill=0;endSize=6;" edge="1" parent="QnzlQ-9_vZ0xbuwPprId-1" source="QnzlQ-9_vZ0xbuwPprId-24" target="QnzlQ-9_vZ0xbuwPprId-52">
                    <mxGeometry relative="1" as="geometry"/>
                </mxCell>
                <mxCell id="QnzlQ-9_vZ0xbuwPprId-24" value="开发者" style="shape=umlActor;verticalLabelPosition=bottom;verticalAlign=top;html=1;fontSize=15;" vertex="1" parent="QnzlQ-9_vZ0xbuwPprId-1">
                    <mxGeometry x="-740" y="850" width="30" height="60" as="geometry"/>
                </mxCell>
                <mxCell id="QnzlQ-9_vZ0xbuwPprId-25" style="edgeStyle=none;html=1;strokeWidth=1;fontSize=15;endArrow=none;endFill=0;endSize=6;" edge="1" parent="QnzlQ-9_vZ0xbuwPprId-1" source="QnzlQ-9_vZ0xbuwPprId-26" target="QnzlQ-9_vZ0xbuwPprId-29">
                    <mxGeometry relative="1" as="geometry"/>
                </mxCell>
                <mxCell id="QnzlQ-9_vZ0xbuwPprId-26" value="系统管理员" style="shape=umlActor;verticalLabelPosition=bottom;verticalAlign=top;html=1;fontSize=15;" vertex="1" parent="QnzlQ-9_vZ0xbuwPprId-1">
                    <mxGeometry x="-1020" y="860" width="30" height="60" as="geometry"/>
                </mxCell>
                <mxCell id="QnzlQ-9_vZ0xbuwPprId-27" style="edgeStyle=none;html=1;strokeWidth=1;fontSize=15;endArrow=none;endFill=0;endSize=6;" edge="1" parent="QnzlQ-9_vZ0xbuwPprId-1" source="QnzlQ-9_vZ0xbuwPprId-28">
                    <mxGeometry relative="1" as="geometry">
                        <mxPoint x="-385" y="1040" as="targetPoint"/>
                    </mxGeometry>
                </mxCell>
                <mxCell id="QnzlQ-9_vZ0xbuwPprId-28" value="财务人员" style="shape=umlActor;verticalLabelPosition=bottom;verticalAlign=top;html=1;fontSize=15;" vertex="1" parent="QnzlQ-9_vZ0xbuwPprId-1">
                    <mxGeometry x="-400" y="850" width="30" height="60" as="geometry"/>
                </mxCell>
                <mxCell id="QnzlQ-9_vZ0xbuwPprId-29" value="" style="rounded=0;whiteSpace=wrap;html=1;fontSize=13;fillColor=#f5f5f5;strokeColor=#666666;fontColor=#333333;" vertex="1" parent="QnzlQ-9_vZ0xbuwPprId-1">
                    <mxGeometry x="-1420" y="1040" width="830" height="130" as="geometry"/>
                </mxCell>
                <mxCell id="QnzlQ-9_vZ0xbuwPprId-30" value="工作空间应用前端" style="html=1;fontSize=13;" vertex="1" parent="QnzlQ-9_vZ0xbuwPprId-1">
                    <mxGeometry x="-1410" y="1099" width="110" height="50" as="geometry"/>
                </mxCell>
                <mxCell id="QnzlQ-9_vZ0xbuwPprId-31" value="工作空间应用接口" style="html=1;fontSize=13;" vertex="1" parent="QnzlQ-9_vZ0xbuwPprId-1">
                    <mxGeometry x="-985" y="1099" width="110" height="50" as="geometry"/>
                </mxCell>
                <mxCell id="QnzlQ-9_vZ0xbuwPprId-32" value="管理后台应用接口" style="html=1;fontSize=13;" vertex="1" parent="QnzlQ-9_vZ0xbuwPprId-1">
                    <mxGeometry x="-850" y="1099" width="110" height="50" as="geometry"/>
                </mxCell>
                <mxCell id="QnzlQ-9_vZ0xbuwPprId-33" value="用户组织应用接口" style="html=1;fontSize=13;" vertex="1" parent="QnzlQ-9_vZ0xbuwPprId-1">
                    <mxGeometry x="-710" y="1099" width="110" height="50" as="geometry"/>
                </mxCell>
                <mxCell id="QnzlQ-9_vZ0xbuwPprId-34" value="管理后台应用前端" style="html=1;fontSize=13;" vertex="1" parent="QnzlQ-9_vZ0xbuwPprId-1">
                    <mxGeometry x="-1160" y="1099" width="110" height="50" as="geometry"/>
                </mxCell>
                <mxCell id="QnzlQ-9_vZ0xbuwPprId-35" value="用户组织应用前端" style="html=1;fontSize=13;" vertex="1" parent="QnzlQ-9_vZ0xbuwPprId-1">
                    <mxGeometry x="-1290" y="1099" width="110" height="50" as="geometry"/>
                </mxCell>
                <mxCell id="QnzlQ-9_vZ0xbuwPprId-36" value="交互层" style="text;html=1;strokeColor=none;fillColor=none;align=center;verticalAlign=middle;whiteSpace=wrap;rounded=0;fontSize=15;" vertex="1" parent="QnzlQ-9_vZ0xbuwPprId-1">
                    <mxGeometry x="-1380" y="1040" width="60" height="30" as="geometry"/>
                </mxCell>
                <mxCell id="QnzlQ-9_vZ0xbuwPprId-37" value="" style="rounded=0;whiteSpace=wrap;html=1;fontSize=15;fillColor=#dae8fc;strokeColor=#6c8ebf;" vertex="1" parent="QnzlQ-9_vZ0xbuwPprId-1">
                    <mxGeometry x="-580" y="1200" width="300" height="370" as="geometry"/>
                </mxCell>
                <mxCell id="QnzlQ-9_vZ0xbuwPprId-38" style="edgeStyle=none;html=1;strokeWidth=1;fontSize=15;endArrow=none;endFill=0;endSize=6;" edge="1" parent="QnzlQ-9_vZ0xbuwPprId-1" source="QnzlQ-9_vZ0xbuwPprId-39" target="QnzlQ-9_vZ0xbuwPprId-41">
                    <mxGeometry relative="1" as="geometry"/>
                </mxCell>
                <mxCell id="QnzlQ-9_vZ0xbuwPprId-39" value="账单计费服务" style="html=1;fontSize=15;" vertex="1" parent="QnzlQ-9_vZ0xbuwPprId-1">
                    <mxGeometry x="-430" y="1249.998918918919" width="110" height="48.64864864864865" as="geometry"/>
                </mxCell>
                <mxCell id="QnzlQ-9_vZ0xbuwPprId-40" style="edgeStyle=none;html=1;strokeWidth=1;fontSize=15;endArrow=none;endFill=0;endSize=6;" edge="1" parent="QnzlQ-9_vZ0xbuwPprId-1" source="QnzlQ-9_vZ0xbuwPprId-41" target="QnzlQ-9_vZ0xbuwPprId-42">
                    <mxGeometry relative="1" as="geometry"/>
                </mxCell>
                <mxCell id="QnzlQ-9_vZ0xbuwPprId-41" value="账单计费数据" style="ellipse;shape=umlEntity;whiteSpace=wrap;html=1;fontSize=15;" vertex="1" parent="QnzlQ-9_vZ0xbuwPprId-1">
                    <mxGeometry x="-415" y="1357.165945945946" width="80" height="77.83783783783784" as="geometry"/>
                </mxCell>
                <mxCell id="QnzlQ-9_vZ0xbuwPprId-42" value="计费计算程序" style="html=1;fontSize=15;" vertex="1" parent="QnzlQ-9_vZ0xbuwPprId-1">
                    <mxGeometry x="-483" y="1481.0824324324324" width="110" height="48.64864864864865" as="geometry"/>
                </mxCell>
                <mxCell id="QnzlQ-9_vZ0xbuwPprId-43" style="edgeStyle=none;html=1;strokeWidth=2;fontSize=15;endArrow=none;endFill=0;endSize=6;" edge="1" parent="QnzlQ-9_vZ0xbuwPprId-1" source="QnzlQ-9_vZ0xbuwPprId-42" target="QnzlQ-9_vZ0xbuwPprId-2">
                    <mxGeometry relative="1" as="geometry"/>
                </mxCell>
                <mxCell id="QnzlQ-9_vZ0xbuwPprId-44" style="edgeStyle=none;html=1;strokeWidth=2;fontSize=15;endArrow=none;endFill=0;endSize=6;exitX=0.25;exitY=1;exitDx=0;exitDy=0;" edge="1" parent="QnzlQ-9_vZ0xbuwPprId-1" source="QnzlQ-9_vZ0xbuwPprId-42" target="QnzlQ-9_vZ0xbuwPprId-57">
                    <mxGeometry relative="1" as="geometry"/>
                </mxCell>
                <mxCell id="QnzlQ-9_vZ0xbuwPprId-45" style="edgeStyle=none;html=1;strokeWidth=1;fontSize=15;endArrow=none;endFill=0;endSize=6;" edge="1" parent="QnzlQ-9_vZ0xbuwPprId-1" source="QnzlQ-9_vZ0xbuwPprId-46" target="QnzlQ-9_vZ0xbuwPprId-48">
                    <mxGeometry relative="1" as="geometry"/>
                </mxCell>
                <mxCell id="QnzlQ-9_vZ0xbuwPprId-46" value="订单服务" style="html=1;fontSize=15;" vertex="1" parent="QnzlQ-9_vZ0xbuwPprId-1">
                    <mxGeometry x="-555" y="1251.3489189189188" width="110" height="48.64864864864865" as="geometry"/>
                </mxCell>
                <mxCell id="QnzlQ-9_vZ0xbuwPprId-47" style="edgeStyle=none;html=1;strokeWidth=1;fontSize=15;endArrow=none;endFill=0;endSize=6;" edge="1" parent="QnzlQ-9_vZ0xbuwPprId-1" source="QnzlQ-9_vZ0xbuwPprId-48" target="QnzlQ-9_vZ0xbuwPprId-42">
                    <mxGeometry relative="1" as="geometry"/>
                </mxCell>
                <mxCell id="QnzlQ-9_vZ0xbuwPprId-48" value="订单数据" style="ellipse;shape=umlEntity;whiteSpace=wrap;html=1;fontSize=15;" vertex="1" parent="QnzlQ-9_vZ0xbuwPprId-1">
                    <mxGeometry x="-540" y="1357.165945945946" width="80" height="77.83783783783784" as="geometry"/>
                </mxCell>
                <mxCell id="QnzlQ-9_vZ0xbuwPprId-49" value="" style="group" vertex="1" connectable="0" parent="QnzlQ-9_vZ0xbuwPprId-1">
                    <mxGeometry x="-580" y="1039" width="300" height="130" as="geometry"/>
                </mxCell>
                <mxCell id="QnzlQ-9_vZ0xbuwPprId-50" value="" style="rounded=0;whiteSpace=wrap;html=1;fontSize=15;container=0;fillColor=#f5f5f5;strokeColor=#666666;fontColor=#333333;" vertex="1" parent="QnzlQ-9_vZ0xbuwPprId-49">
                    <mxGeometry width="300" height="130" as="geometry"/>
                </mxCell>
                <mxCell id="QnzlQ-9_vZ0xbuwPprId-51" value="" style="group" vertex="1" connectable="0" parent="QnzlQ-9_vZ0xbuwPprId-49">
                    <mxGeometry x="20" y="9" width="240" height="111" as="geometry"/>
                </mxCell>
                <mxCell id="QnzlQ-9_vZ0xbuwPprId-52" value="订单账单前端" style="html=1;fontSize=15;container=0;" vertex="1" parent="QnzlQ-9_vZ0xbuwPprId-51">
                    <mxGeometry width="110" height="50" as="geometry"/>
                </mxCell>
                <mxCell id="QnzlQ-9_vZ0xbuwPprId-53" value="财务报表前端" style="html=1;fontSize=15;container=0;" vertex="1" parent="QnzlQ-9_vZ0xbuwPprId-51">
                    <mxGeometry x="130" width="110" height="50" as="geometry"/>
                </mxCell>
                <mxCell id="QnzlQ-9_vZ0xbuwPprId-54" value="订单账单计费接口" style="html=1;fontSize=15;container=0;" vertex="1" parent="QnzlQ-9_vZ0xbuwPprId-51">
                    <mxGeometry y="61" width="240" height="50" as="geometry"/>
                </mxCell>
                <mxCell id="QnzlQ-9_vZ0xbuwPprId-55" value="" style="group" vertex="1" connectable="0" parent="QnzlQ-9_vZ0xbuwPprId-1">
                    <mxGeometry x="-1420" y="1610" width="1140" height="370" as="geometry"/>
                </mxCell>
                <mxCell id="QnzlQ-9_vZ0xbuwPprId-56" value="" style="rounded=0;whiteSpace=wrap;html=1;container=0;fillColor=#fff2cc;strokeColor=#d6b656;fontSize=15;" vertex="1" parent="QnzlQ-9_vZ0xbuwPprId-55">
                    <mxGeometry width="1140" height="370" as="geometry"/>
                </mxCell>
                <mxCell id="QnzlQ-9_vZ0xbuwPprId-57" value="容器镜像服务" style="html=1;container=0;fontSize=15;" vertex="1" parent="QnzlQ-9_vZ0xbuwPprId-55">
                    <mxGeometry x="550" y="160" width="110" height="50" as="geometry"/>
                </mxCell>
                <mxCell id="QnzlQ-9_vZ0xbuwPprId-58" value="容器执行器" style="html=1;container=0;fontSize=15;" vertex="1" parent="QnzlQ-9_vZ0xbuwPprId-55">
                    <mxGeometry x="400" y="160" width="110" height="50" as="geometry"/>
                </mxCell>
                <mxCell id="QnzlQ-9_vZ0xbuwPprId-59" value="容器镜像数据" style="ellipse;shape=umlEntity;whiteSpace=wrap;html=1;container=0;fontSize=15;" vertex="1" parent="QnzlQ-9_vZ0xbuwPprId-55">
                    <mxGeometry x="506" y="255" width="80" height="80" as="geometry"/>
                </mxCell>
                <mxCell id="QnzlQ-9_vZ0xbuwPprId-60" style="edgeStyle=none;html=1;endArrow=none;endFill=0;fontSize=15;" edge="1" parent="QnzlQ-9_vZ0xbuwPprId-55" source="QnzlQ-9_vZ0xbuwPprId-57" target="QnzlQ-9_vZ0xbuwPprId-59">
                    <mxGeometry relative="1" as="geometry"/>
                </mxCell>
                <mxCell id="QnzlQ-9_vZ0xbuwPprId-61" style="edgeStyle=none;html=1;endArrow=none;endFill=0;fontSize=15;" edge="1" parent="QnzlQ-9_vZ0xbuwPprId-55" source="QnzlQ-9_vZ0xbuwPprId-58" target="QnzlQ-9_vZ0xbuwPprId-59">
                    <mxGeometry relative="1" as="geometry"/>
                </mxCell>
                <mxCell id="QnzlQ-9_vZ0xbuwPprId-62" value="异步任务数据" style="ellipse;shape=umlEntity;whiteSpace=wrap;html=1;container=0;fontSize=15;" vertex="1" parent="QnzlQ-9_vZ0xbuwPprId-55">
                    <mxGeometry x="415" y="45" width="80" height="80" as="geometry"/>
                </mxCell>
                <mxCell id="QnzlQ-9_vZ0xbuwPprId-63" style="edgeStyle=none;html=1;endArrow=none;endFill=0;fontSize=15;" edge="1" parent="QnzlQ-9_vZ0xbuwPprId-55" source="QnzlQ-9_vZ0xbuwPprId-58" target="QnzlQ-9_vZ0xbuwPprId-62">
                    <mxGeometry relative="1" as="geometry"/>
                </mxCell>
                <mxCell id="QnzlQ-9_vZ0xbuwPprId-64" value="镜像文件" style="ellipse;shape=umlEntity;whiteSpace=wrap;html=1;container=0;fontSize=15;" vertex="1" parent="QnzlQ-9_vZ0xbuwPprId-55">
                    <mxGeometry x="630" y="255" width="80" height="80" as="geometry"/>
                </mxCell>
                <mxCell id="QnzlQ-9_vZ0xbuwPprId-65" style="edgeStyle=none;html=1;endArrow=none;endFill=0;fontSize=15;" edge="1" parent="QnzlQ-9_vZ0xbuwPprId-55" source="QnzlQ-9_vZ0xbuwPprId-57" target="QnzlQ-9_vZ0xbuwPprId-64">
                    <mxGeometry relative="1" as="geometry"/>
                </mxCell>
                <mxCell id="QnzlQ-9_vZ0xbuwPprId-66" value="容器服务层" style="text;html=1;align=center;verticalAlign=middle;resizable=0;points=[];autosize=1;strokeColor=none;fillColor=none;fontSize=15;" vertex="1" parent="QnzlQ-9_vZ0xbuwPprId-55">
                    <mxGeometry width="100" height="30" as="geometry"/>
                </mxCell>
                <mxCell id="QnzlQ-9_vZ0xbuwPprId-67" value="容器环境API" style="html=1;container=0;fontSize=15;" vertex="1" parent="QnzlQ-9_vZ0xbuwPprId-55">
                    <mxGeometry x="180" y="220" width="110" height="120" as="geometry"/>
                </mxCell>
                <mxCell id="QnzlQ-9_vZ0xbuwPprId-68" style="edgeStyle=none;html=1;strokeWidth=1;fontSize=15;endArrow=none;endFill=0;endSize=6;" edge="1" parent="QnzlQ-9_vZ0xbuwPprId-55" source="QnzlQ-9_vZ0xbuwPprId-58" target="QnzlQ-9_vZ0xbuwPprId-67">
                    <mxGeometry relative="1" as="geometry"/>
                </mxCell>
                <mxCell id="QnzlQ-9_vZ0xbuwPprId-69" style="edgeStyle=none;html=1;endArrow=none;endFill=0;exitX=0.721;exitY=0.999;exitDx=0;exitDy=0;exitPerimeter=0;fontSize=15;strokeWidth=2;" edge="1" parent="QnzlQ-9_vZ0xbuwPprId-1" source="QnzlQ-9_vZ0xbuwPprId-2" target="QnzlQ-9_vZ0xbuwPprId-57">
                    <mxGeometry relative="1" as="geometry">
                        <mxPoint x="-820" y="1560" as="sourcePoint"/>
                    </mxGeometry>
                </mxCell>
                <mxCell id="QnzlQ-9_vZ0xbuwPprId-70" style="edgeStyle=none;html=1;endArrow=none;endFill=0;fontSize=15;" edge="1" parent="QnzlQ-9_vZ0xbuwPprId-1" source="QnzlQ-9_vZ0xbuwPprId-7" target="QnzlQ-9_vZ0xbuwPprId-62">
                    <mxGeometry relative="1" as="geometry"/>
                </mxCell>
                <mxCell id="QnzlQ-9_vZ0xbuwPprId-71" style="edgeStyle=none;html=1;endArrow=none;endFill=0;fontSize=15;" edge="1" parent="QnzlQ-9_vZ0xbuwPprId-1" source="QnzlQ-9_vZ0xbuwPprId-8" target="QnzlQ-9_vZ0xbuwPprId-62">
                    <mxGeometry relative="1" as="geometry"/>
                </mxCell>
                <mxCell id="QnzlQ-9_vZ0xbuwPprId-72" style="edgeStyle=none;html=1;endArrow=none;endFill=0;fontSize=15;" edge="1" parent="QnzlQ-9_vZ0xbuwPprId-1" source="QnzlQ-9_vZ0xbuwPprId-9" target="QnzlQ-9_vZ0xbuwPprId-62">
                    <mxGeometry relative="1" as="geometry"/>
                </mxCell>
                <mxCell id="QnzlQ-9_vZ0xbuwPprId-73" style="edgeStyle=none;html=1;endArrow=none;endFill=0;" edge="1" parent="QnzlQ-9_vZ0xbuwPprId-1" source="QnzlQ-9_vZ0xbuwPprId-74" target="QnzlQ-9_vZ0xbuwPprId-75">
                    <mxGeometry relative="1" as="geometry"/>
                </mxCell>
                <mxCell id="QnzlQ-9_vZ0xbuwPprId-74" value="用户组织服务" style="html=1;fontSize=15;" vertex="1" parent="QnzlQ-9_vZ0xbuwPprId-1">
                    <mxGeometry x="-1380" y="1260" width="110" height="50" as="geometry"/>
                </mxCell>
                <mxCell id="QnzlQ-9_vZ0xbuwPprId-75" value="用户组织数据" style="ellipse;shape=umlEntity;whiteSpace=wrap;html=1;fontSize=15;" vertex="1" parent="QnzlQ-9_vZ0xbuwPprId-1">
                    <mxGeometry x="-1365" y="1355" width="80" height="80" as="geometry"/>
                </mxCell>
            </root>
        </mxGraphModel>
    </diagram>
</mxfile>